<svg xmlns="http://www.w3.org/2000/svg" viewBox="0 0 788 239" width="788" height="239" font-family="Sora, sans-serif">
<defs>
  <linearGradient id="sig" x1="0" y1="1" x2="1" y2="0">
    <stop offset="0" stop-color="#2DD4BF"/><stop offset="0.55" stop-color="#34D399"/><stop offset="1" stop-color="#A3E635"/>
  </linearGradient>
  <linearGradient id="meshtext" x1="0" y1="0" x2="1" y2="0">
    <stop offset="0" stop-color="#2DD4BF"/><stop offset="1" stop-color="#A3E635"/>
  </linearGradient>
</defs>
<rect width="788" height="239" fill="#0A1322"/>
<g transform="translate(24,19.86806173087271)"><path d="M183.65 22.32 L185.12 21.76 L184.91 22.77 L183.65 22.32 Z M180.91 20.81 L182.19 20.23 L180.95 21.42 L180.91 20.81 Z M181.34 19.58 L182.45 19.27 L181.67 20.04 L181.34 19.58 Z M181.36 18.33 L181.79 18.81 L181.12 18.78 L181.36 18.33 Z M208.72 101.48 L208.78 104.28 L207.08 104.99 L208.34 106.90 L208.45 109.82 L204.67 111.37 L204.17 110.82 L204.93 109.70 L203.99 107.74 L201.44 106.56 L196.72 114.36 L197.57 116.09 L197.85 120.36 L194.95 121.17 L193.95 125.57 L188.10 126.88 L184.64 122.37 L181.01 120.93 L179.75 115.37 L176.15 116.37 L172.94 119.81 L169.76 120.38 L167.55 118.54 L163.69 117.11 L160.99 117.88 L160.41 119.41 L159.66 119.50 L157.37 118.67 L154.80 115.19 L146.10 113.75 L143.77 107.18 L140.51 104.31 L135.75 104.99 L132.59 102.57 L130.66 103.94 L131.02 19.21 L165.39 18.01 L166.52 19.36 L168.62 19.03 L171.04 20.90 L174.74 22.13 L178.60 25.15 L180.10 24.65 L181.15 22.75 L182.38 24.29 L184.10 24.25 L184.20 25.56 L186.67 27.96 L190.12 29.50 L202.05 25.11 L205.47 26.16 L208.99 25.99 L220.48 17.11 L239.99 10.00 L240.00 53.79 L237.25 54.41 L236.21 55.63 L237.96 58.90 L237.45 62.20 L237.94 64.29 L235.26 69.68 L234.38 75.64 L232.63 77.54 L232.05 84.31 L230.81 87.09 L227.26 89.23 L222.29 94.68 L218.22 96.22 L216.18 94.01 L208.72 101.48 Z" fill="#2DD4BF" fill-opacity="0.16" stroke="#2DD4BF" stroke-width="2.2" stroke-linejoin="round" fill-rule="evenodd"/>
<path d="M130.69 17.11 L130.66 103.94 L128.70 105.52 L131.55 111.32 L130.84 113.99 L126.19 114.70 L121.70 117.60 L119.09 115.86 L115.06 116.24 L114.47 117.56 L115.34 122.72 L110.64 125.74 L108.71 130.44 L107.16 131.37 L105.01 131.05 L102.99 134.83 L103.06 137.29 L101.90 139.92 L96.12 139.74 L93.89 138.24 L93.78 135.85 L92.80 135.38 L89.18 138.45 L87.52 138.71 L87.32 141.14 L84.55 145.21 L82.08 143.56 L79.95 140.14 L74.40 143.16 L73.53 146.45 L72.42 147.22 L65.58 142.21 L63.80 142.02 L62.25 143.17 L60.18 140.90 L59.26 142.50 L60.29 144.40 L59.61 145.60 L57.98 145.46 L58.07 143.31 L54.14 144.14 L52.42 142.48 L51.33 143.92 L52.20 146.40 L51.26 147.40 L49.12 146.67 L48.01 143.51 L49.49 143.57 L48.76 138.59 L49.50 136.72 L52.09 134.80 L50.87 133.44 L51.06 132.27 L53.31 130.94 L56.18 126.92 L58.57 123.04 L58.22 122.27 L59.49 119.19 L62.04 117.30 L62.66 114.49 L61.18 111.86 L62.23 108.89 L58.50 102.95 L59.87 101.31 L59.89 97.14 L61.74 96.02 L61.93 18.81 L64.49 20.95 L68.17 21.70 L73.57 20.33 L79.70 17.11 L130.69 17.11 Z" fill="#38BDF8" fill-opacity="0.16" stroke="#38BDF8" stroke-width="2.2" stroke-linejoin="round" fill-rule="evenodd"/>
<path d="M10.70 189.23 L10.00 187.07 L12.23 186.94 L12.08 189.25 L10.70 189.23 Z M186.99 132.02 L186.17 135.60 L189.14 139.83 L190.52 140.60 L189.63 142.18 L193.97 147.44 L194.80 150.33 L199.39 154.51 L201.12 155.44 L203.16 155.22 L193.43 164.08 L187.98 166.40 L184.00 169.36 L183.99 171.34 L180.30 173.55 L180.44 175.29 L179.18 176.93 L175.09 177.57 L173.46 181.22 L163.53 183.74 L159.37 186.47 L88.76 184.20 L53.56 184.81 L53.65 183.82 L48.04 183.34 L49.00 187.84 L48.48 189.26 L13.80 189.20 L15.12 185.08 L16.10 184.85 L18.40 186.98 L19.97 184.25 L19.38 181.34 L21.09 180.94 L21.27 179.84 L19.85 178.93 L19.90 178.19 L21.85 174.65 L19.80 171.30 L22.21 167.40 L24.38 165.47 L25.88 165.33 L35.96 170.53 L38.16 170.40 L39.04 167.83 L36.71 163.52 L37.71 160.16 L39.44 158.91 L40.72 159.57 L42.67 158.01 L48.24 156.81 L46.44 154.03 L45.81 151.08 L49.12 146.67 L51.26 147.40 L52.20 146.40 L51.33 143.92 L52.25 142.56 L54.14 144.14 L58.07 143.31 L57.98 145.46 L58.83 145.80 L60.28 144.65 L59.26 142.50 L60.36 140.91 L62.25 143.17 L63.80 142.02 L65.58 142.21 L72.42 147.22 L73.53 146.45 L74.40 143.16 L77.30 142.18 L79.74 140.14 L82.08 143.56 L84.55 145.21 L87.32 141.14 L87.52 138.71 L89.18 138.45 L92.80 135.38 L93.78 135.85 L93.89 138.24 L96.12 139.74 L101.90 139.92 L103.06 137.29 L102.99 134.83 L105.01 131.05 L107.16 131.37 L108.71 130.44 L110.64 125.74 L115.34 122.72 L114.47 117.56 L115.06 116.24 L119.09 115.86 L121.70 117.60 L126.19 114.70 L130.84 113.99 L131.55 111.32 L128.70 105.52 L132.33 102.60 L135.75 104.99 L140.51 104.31 L143.77 107.18 L146.10 113.75 L154.80 115.19 L157.37 118.67 L159.66 119.50 L160.41 119.41 L160.99 117.88 L163.69 117.11 L167.55 118.54 L169.76 120.38 L172.94 119.81 L176.15 116.37 L179.75 115.37 L181.01 120.93 L184.64 122.37 L187.26 126.31 L187.74 131.47 L186.99 132.02 Z" fill="#A3E635" fill-opacity="0.16" stroke="#A3E635" stroke-width="2.2" stroke-linejoin="round" fill-rule="evenodd"/>
<g transform="translate(167.7,71.1)" opacity="0.9"><path d="M432.25 -19.5Q332.75 -19.5 259.5 15.125Q186.25 49.75 138.0 106.375Q89.75 163 66.125 228.75Q42.5 294.5 42.5 356V378Q42.5 446 67.0 512.375Q91.5 578.75 140.75 632.875Q190 687 262.75 719.25Q335.5 751.5 432.25 751.5Q528.25 751.5 601.0 719.25Q673.75 687 723.0 632.875Q772.25 578.75 797.125 512.375Q822 446 822 378V356Q822 294.5 798.0 228.75Q774 163 725.75 106.375Q677.5 49.75 604.25 15.125Q531 -19.5 432.25 -19.5ZM432.25 133.5Q484.25 133.5 525.625 151.5Q567 169.5 596.25 201.625Q625.5 233.75 640.75 275.75Q656 317.75 656 366Q656 417.25 640.375 459.75Q624.75 502.25 595.5 533.375Q566.25 564.5 524.875 581.5Q483.5 598.5 432.25 598.5Q380.25 598.5 338.875 581.5Q297.5 564.5 268.25 533.375Q239 502.25 223.75 459.75Q208.5 417.25 208.5 366Q208.5 317.75 223.75 275.75Q239 233.75 268.25 201.625Q297.5 169.5 338.875 151.5Q380.25 133.5 432.25 133.5Z" fill="#E2E8F0" transform="translate(0.000,0.000) scale(0.01700,-0.01700)"/>
<path d="M553.5 0V730H717.5V0ZM82 0V730H246V0ZM217 295V438.5H582.5V295Z" fill="#E2E8F0" transform="translate(15.028,0.000) scale(0.01700,-0.01700)"/></g>
<g transform="translate(83.0,83.8)" opacity="0.9"><path d="M84 0V730H248V0Z" fill="#E2E8F0" transform="translate(0.000,0.000) scale(0.01700,-0.01700)"/>
<path d="M82 0V730H350.75L625.75 133H660L640 115V730H794V0H523.25L248.25 597H214L234 615V0Z" fill="#E2E8F0" transform="translate(5.984,0.000) scale(0.01700,-0.01700)"/></g>
<g transform="translate(106.4,161.6)" opacity="0.9"><path d="M561.5 0 309.5 341H208.5L514.5 730H703L428 381L425.75 451.5L760 0ZM82 0V730H246V0Z" fill="#E2E8F0" transform="translate(0.000,0.000) scale(0.01700,-0.01700)"/>
<path d="M220.25 276.5 7 730H175L328.25 390.75L299.25 400.25H382.75L351.75 390.75L490 730H649L452.75 276.5ZM256.25 0V299.5H416.75V0Z" fill="#E2E8F0" transform="translate(13.124,0.000) scale(0.01700,-0.01700)"/></g>
<line x1="138.5" y1="104.1" x2="156.6" y2="77.0" stroke="url(#sig)" stroke-width="2.4" stroke-linecap="round" opacity="0.95"/>
<line x1="138.5" y1="104.1" x2="112.1" y2="97.6" stroke="url(#sig)" stroke-width="2.4" stroke-linecap="round" opacity="0.95"/>
<line x1="138.5" y1="104.1" x2="140.1" y2="125.4" stroke="url(#sig)" stroke-width="2.4" stroke-linecap="round" opacity="0.95"/>
<line x1="156.6" y1="77.0" x2="166.8" y2="95.9" stroke="url(#sig)" stroke-width="2.4" stroke-linecap="round" opacity="0.95"/>
<line x1="166.8" y1="95.9" x2="138.5" y2="104.1" stroke="url(#sig)" stroke-width="2.4" stroke-linecap="round" opacity="0.95"/>
<line x1="140.1" y1="125.4" x2="152.8" y2="117.2" stroke="url(#sig)" stroke-width="2.4" stroke-linecap="round" opacity="0.95"/>
<line x1="152.8" y1="117.2" x2="138.5" y2="104.1" stroke="url(#sig)" stroke-width="2.4" stroke-linecap="round" opacity="0.95"/>
<line x1="112.1" y1="97.6" x2="140.1" y2="125.4" stroke="url(#sig)" stroke-width="2.4" stroke-linecap="round" opacity="0.95"/>
<line x1="156.6" y1="77.0" x2="112.1" y2="97.6" stroke="url(#sig)" stroke-width="2.4" stroke-linecap="round" opacity="0.95"/>
<path d="M150.02 98.02 A13.00 13.00 0 0 0 127.07 98.02" fill="none" stroke="#F9B233" stroke-width="2.6" stroke-linecap="round" opacity="0.90"/>
<path d="M155.32 95.20 A19.00 19.00 0 0 0 121.77 95.20" fill="none" stroke="#F9B233" stroke-width="2.2" stroke-linecap="round" opacity="0.64"/>
<path d="M160.62 92.39 A25.00 25.00 0 0 0 116.47 92.39" fill="none" stroke="#F9B233" stroke-width="1.8" stroke-linecap="round" opacity="0.38"/>
<circle cx="156.6" cy="77.0" r="5.6" fill="url(#sig)" stroke="#0A1322" stroke-width="2"/>
<circle cx="112.1" cy="97.6" r="5.6" fill="url(#sig)" stroke="#0A1322" stroke-width="2"/>
<circle cx="140.1" cy="125.4" r="5.6" fill="url(#sig)" stroke="#0A1322" stroke-width="2"/>
<circle cx="166.8" cy="95.9" r="5.6" fill="url(#sig)" stroke="#0A1322" stroke-width="2"/>
<circle cx="152.8" cy="117.2" r="5.6" fill="url(#sig)" stroke="#0A1322" stroke-width="2"/>
<circle cx="138.5" cy="104.1" r="7.2" fill="#F9B233" stroke="#0A1322" stroke-width="2"/></g>
<g transform="translate(304,124.5)"><path d="M432.25 -19.5Q332.75 -19.5 259.5 15.125Q186.25 49.75 138.0 106.375Q89.75 163 66.125 228.75Q42.5 294.5 42.5 356V378Q42.5 446 67.0 512.375Q91.5 578.75 140.75 632.875Q190 687 262.75 719.25Q335.5 751.5 432.25 751.5Q528.25 751.5 601.0 719.25Q673.75 687 723.0 632.875Q772.25 578.75 797.125 512.375Q822 446 822 378V356Q822 294.5 798.0 228.75Q774 163 725.75 106.375Q677.5 49.75 604.25 15.125Q531 -19.5 432.25 -19.5ZM432.25 133.5Q484.25 133.5 525.625 151.5Q567 169.5 596.25 201.625Q625.5 233.75 640.75 275.75Q656 317.75 656 366Q656 417.25 640.375 459.75Q624.75 502.25 595.5 533.375Q566.25 564.5 524.875 581.5Q483.5 598.5 432.25 598.5Q380.25 598.5 338.875 581.5Q297.5 564.5 268.25 533.375Q239 502.25 223.75 459.75Q208.5 417.25 208.5 366Q208.5 317.75 223.75 275.75Q239 233.75 268.25 201.625Q297.5 169.5 338.875 151.5Q380.25 133.5 432.25 133.5Z" fill="#F1F5F9" transform="translate(0.000,0.000) scale(0.09200,-0.09200)"/>
<path d="M561.5 0 309.5 341H208.5L514.5 730H703L428 381L425.75 451.5L760 0ZM82 0V730H246V0Z" fill="#F1F5F9" transform="translate(79.488,0.000) scale(0.09200,-0.09200)"/>
<path d="M84 0V730H248V0Z" fill="#F1F5F9" transform="translate(148.672,0.000) scale(0.09200,-0.09200)"/></g>
<g transform="translate(489.216,124.5)"><path d="M90 0V730H284L467 294H485L667 730H864V0H723V623L741 621L543.5 149H399L200.5 621L220 623V0Z" fill="url(#meshtext)" transform="translate(0.000,0.000) scale(0.09200,-0.09200)"/>
<path d="M322 -19Q252 -19 199.5 5.0Q147 29 112.5 69.25Q78 109.5 60.5 159.5Q43 209.5 43 262V281Q43 335 60.5 385.25Q78 435.5 112.25 475.25Q146.5 515 197.75 538.5Q249 562 316 562Q404 562 463.25 523.25Q522.5 484.5 552.75 422.25Q583 360 583 288V237.5H102V322.5H495.5L453 281Q453 333 437.75 370.0Q422.5 407 392.25 427.0Q362 447 316 447Q269.5 447 237.5 425.75Q205.5 404.5 189.25 365.25Q173 326 173 271Q173 219.5 188.75 180.0Q204.5 140.5 237.5 118.25Q270.5 96 322 96Q372.5 96 404.5 116.5Q436.5 137 445.5 166.5H573.5Q562 111 527.75 69.0Q493.5 27 441.25 4.0Q389 -19 322 -19Z" fill="url(#meshtext)" transform="translate(87.768,0.000) scale(0.09200,-0.09200)"/>
<path d="M276 -17Q163.5 -17 100.25 30.25Q37 77.5 33.5 161.5H158.5Q161.5 133.5 189.75 110.75Q218 88 278 88Q327.5 88 357.25 106.0Q387 124 387 154.5Q387 181.5 364.5 197.5Q342 213.5 287.5 219L239.5 224Q148.5 233.5 99.5 275.75Q50.5 318 50.5 387.5Q50.5 443.5 78.5 481.5Q106.5 519.5 156.0 539.25Q205.5 559 269.5 559Q370 559 432.0 514.75Q494 470.5 497 385.5H372Q369.5 414 343.75 434.0Q318 454 268.5 454Q225 454 200.75 437.0Q176.5 420 176.5 392.5Q176.5 367 196.0 353.0Q215.5 339 259.5 334L307.5 329Q403.5 319 458.25 276.0Q513 233 513 159.5Q513 106 483.5 66.25Q454 26.5 400.75 4.75Q347.5 -17 276 -17Z" fill="url(#meshtext)" transform="translate(144.808,0.000) scale(0.09200,-0.09200)"/>
<path d="M79 0V730H218V304H194Q194 385.5 214.75 442.75Q235.5 500 277.25 530.0Q319 560 382.5 560H388.5Q481.5 560 529.75 495.75Q578 431.5 578 309.5V0H439V323Q439 374.5 409.25 404.75Q379.5 435 331.5 435Q280.5 435 249.25 401.5Q218 368 218 313.5V0Z" fill="url(#meshtext)" transform="translate(195.316,0.000) scale(0.09200,-0.09200)"/></g>
<g transform="translate(306,158.5)"><path d="M432.75 -18.5Q334.25 -18.5 262.5 16.375Q190.75 51.25 144.0 108.125Q97.25 165 74.375 230.25Q51.5 295.5 51.5 356V378Q51.5 444 75.0 510.125Q98.5 576.25 146.25 630.625Q194 685 265.25 717.75Q336.5 750.5 432.75 750.5Q528.75 750.5 600.0 717.75Q671.25 685 719.0 630.625Q766.75 576.25 790.375 510.125Q814 444 814 378V356Q814 295.5 791.0 230.25Q768 165 721.25 108.125Q674.5 51.25 602.75 16.375Q531 -18.5 432.75 -18.5ZM432.75 92.5Q492.75 92.5 540.875 114.5Q589 136.5 622.75 174.875Q656.5 213.25 674.25 262.25Q692 311.25 692 366Q692 423.75 674.125 473.25Q656.25 522.75 622.5 560.125Q588.75 597.5 540.625 618.5Q492.5 639.5 432.75 639.5Q372.75 639.5 324.625 618.5Q276.5 597.5 242.75 560.125Q209 522.75 191.25 473.25Q173.5 423.75 173.5 366Q173.5 311.25 191.25 262.25Q209 213.25 242.75 174.875Q276.5 136.5 324.625 114.5Q372.75 92.5 432.75 92.5Z" fill="#7C8DA6" transform="translate(0.000,0.000) scale(0.01800,-0.01800)"/>
<path d="M85.5 0V730H203V299H179Q179 379.25 199.625 436.625Q220.25 494 262.625 524.5Q305 555 370.25 555H375.25Q469.75 555 518.375 491.125Q567 427.25 567 307.25V0H449.5V324Q449.5 382.25 416.375 415.375Q383.25 448.5 330.25 448.5Q272.75 448.5 237.875 410.5Q203 372.5 203 310.75V0Z" fill="#7C8DA6" transform="translate(15.750,0.000) scale(0.01800,-0.01800)"/>
<path d="M111.5 0V538.5H229V0ZM32.5 448.5V538.5H229V448.5ZM150.375 614Q114 614 96.5 633.125Q79 652.25 79 681.75Q79 711.25 96.5297619047619 730.375Q114.05952380952381 749.5 150.25 749.5Q186.75 749.5 204.125 730.375Q221.5 711.25 221.5 681.75Q221.5 652.25 204.125 633.125Q186.75 614 150.375 614Z" fill="#7C8DA6" transform="translate(27.522,0.000) scale(0.01800,-0.01800)"/>
<path d="M338.75 -18.5Q268 -18.5 214.0 5.0Q160 28.5 122.75 67.875Q85.5 107.25 66.5 156.75Q47.5 206.25 47.5 259V278.5Q47.5 331.75 67.125 381.875Q86.75 432 124.5 471.375Q162.25 510.75 216.25 533.875Q270.25 557 338.75 557Q407.5 557 461.375 533.875Q515.25 510.75 553.0 471.375Q590.75 432 610.375 381.875Q630 331.75 630 278.5V259Q630 206.25 611.0 156.75Q592 107.25 554.75 67.875Q517.5 28.5 463.5 5.0Q409.5 -18.5 338.75 -18.5ZM338.75 84Q394.25 84 433.0 108.375Q471.75 132.75 492.125 174.625Q512.5 216.5 512.5 268.75Q512.5 322.25 491.625 364.125Q470.75 406 431.875 430.25Q393 454.5 338.75 454.5Q285.25 454.5 246.0 430.25Q206.75 406 185.875 364.125Q165 322.25 165 268.75Q165 216.5 185.375 174.625Q205.75 132.75 244.625 108.375Q283.5 84 338.75 84Z" fill="#7C8DA6" transform="translate(33.408,0.000) scale(0.01800,-0.01800)"/>
<path d="M64.75 206.0V347.0H200.75V206.0Z" fill="#7C8DA6" transform="translate(49.968,0.000) scale(0.01800,-0.01800)"/>
<path d="M564.5 0 282.5 341H177.5L505.5 730H643L346 379L339.25 448.5L712 0ZM98 0V730H218V0Z" fill="#7C8DA6" transform="translate(59.112,0.000) scale(0.01800,-0.01800)"/>
<path d="M320.5 -18.5Q250.5 -18.5 198.75 5.5Q147 29.5 113.75 69.375Q80.5 109.25 64.0 158.75Q47.5 208.25 47.5 260V278.5Q47.5 331.5 64.0 381.125Q80.5 430.75 113.625 470.375Q146.75 510 197.125 533.5Q247.5 557 314.5 557Q402 557 459.875 518.875Q517.75 480.75 546.625 420.125Q575.5 359.5 575.5 290V243.25H98V321.75H496.75L464.5 281.5Q464.5 336 447.875 375.25Q431.25 414.5 398.125 436.0Q365 457.5 314.5 457.5Q262.75 457.5 228.0 433.875Q193.25 410.25 175.875 368.125Q158.5 326 158.5 269Q158.5 214.75 175.625 172.25Q192.75 129.75 228.75 105.375Q264.75 81 320.5 81Q377.25 81 413.0 105.25Q448.75 129.5 457.25 162.75H566.25Q555 107.5 521.375 66.5Q487.75 25.5 436.625 3.5Q385.5 -18.5 320.5 -18.5Z" fill="#7C8DA6" transform="translate(71.946,0.000) scale(0.01800,-0.01800)"/>
<path d="M85.5 0V538.5H178.5V307.5H167.5Q167.5 388.25 189.125 443.25Q210.75 498.25 254.625 526.625Q298.5 555 364.25 555H369.25Q468.5 555 517.75 492.125Q567 429.25 567 307.75V0H449.5V324Q449.5 380 417.625 414.25Q385.75 448.5 330.25 448.5Q273.25 448.5 238.125 413.125Q203 377.75 203 319V0Z" fill="#7C8DA6" transform="translate(83.214,0.000) scale(0.01800,-0.01800)"/>
<path d="M307.25 -6.5Q239.75 -6.5 193.75 11.75Q147.75 30 124.125 73.875Q100.5 117.75 100.5 192.75L100.75 696H211.75L211.5 182.5Q211.5 141 234.0 118.5Q256.5 96 298 96H387.5V-6.5ZM11.5 451.5V538.5H387.5V451.5Z" fill="#7C8DA6" transform="translate(94.986,0.000) scale(0.01800,-0.01800)"/>
<path d="M270.5 -16.5Q175.75 -16.5 124.625 45.375Q73.5 107.25 73.5 226.75V539.25H191V211.25Q191 154.75 222.0 122.375Q253 90 305.75 90Q360 90 394.25 124.625Q428.5 159.25 428.5 219.25V539.25H546V0H453V229.75H464.5Q464.5 149.25 443.375 94.5Q422.25 39.75 380.625 11.625Q339 -16.5 275.5 -16.5Z" fill="#7C8DA6" transform="translate(102.888,0.000) scale(0.01800,-0.01800)"/>
<path d="M320.25 -18.5Q250.5 -18.5 199.375 5.375Q148.25 29.25 114.625 69.625Q81 110 64.25 159.5Q47.5 209 47.5 259.5V278Q47.5 330.75 64.5 380.5Q81.5 430.25 115.625 469.875Q149.75 509.5 200.5 533.25Q251.25 557 318.75 557Q388 557 442.625 530.75Q497.25 504.5 530.25 457.25Q563.25 410 567.25 346.5H453.75Q447.75 392.25 413.125 423.125Q378.5 454 318.75 454Q267.25 454 233.125 430.0Q199 406 182.0 364.25Q165 322.5 165 268.75Q165 217.25 181.625 175.125Q198.25 133 232.75 108.75Q267.25 84.5 320.25 84.5Q361 84.5 390.5 99.0Q420 113.5 437.75 138.375Q455.5 163.25 459.25 195H572.75Q569.5 130.25 535.5 82.5Q501.5 34.75 445.875 8.125Q390.25 -18.5 320.25 -18.5Z" fill="#7C8DA6" transform="translate(114.480,0.000) scale(0.01800,-0.01800)"/>
<path d="M459.5 0 268 251.25H183.5L421.25 538.5H544.5L326.75 276.5L332 336.75L593.5 0ZM85.5 0V730H203V0Z" fill="#7C8DA6" transform="translate(125.604,0.000) scale(0.01800,-0.01800)"/>
<path d="M59.5 -211V-108.5H149Q180.25 -108.5 201.875 -100.625Q223.5 -92.75 237.625 -74.375Q251.75 -56 260.5 -25.25L417.5 538.5H531L361.25 -52.75Q345.25 -109.5 316.375 -144.5Q287.5 -179.5 244.0 -195.25Q200.5 -211 139.5 -211ZM225.5 12V107H341.5V12ZM197 12 13.5 538.5H132.5L307.5 12Z" fill="#7C8DA6" transform="translate(136.494,0.000) scale(0.01800,-0.01800)"/>
<path d="M64.75 206.0V347.0H200.75V206.0Z" fill="#7C8DA6" transform="translate(150.840,0.000) scale(0.01800,-0.01800)"/>
<path d="M100 0V730H220V0Z" fill="#7C8DA6" transform="translate(159.984,0.000) scale(0.01800,-0.01800)"/>
<path d="M85.5 0V538.5H178.5V307.5H167.5Q167.5 388.25 189.125 443.25Q210.75 498.25 254.625 526.625Q298.5 555 364.25 555H369.25Q468.5 555 517.75 492.125Q567 429.25 567 307.75V0H449.5V324Q449.5 380 417.625 414.25Q385.75 448.5 330.25 448.5Q273.25 448.5 238.125 413.125Q203 377.75 203 319V0Z" fill="#7C8DA6" transform="translate(165.924,0.000) scale(0.01800,-0.01800)"/>
<path d="M309.5 -18Q252.25 -18 204.375 3.0Q156.5 24 121.25 61.875Q86 99.75 66.75 150.0Q47.5 200.25 47.5 258.75V278.25Q47.5 336 66.125 386.375Q84.75 436.75 118.875 474.875Q153 513 200.375 534.5Q247.75 556 305.75 556Q368.25 556 417.625 529.5Q467 503 497.375 448.5Q527.75 394 531.25 309.5L490.75 365.25V730H608.25V0H515.25V233.75H541.25Q537.75 147 505.25 91.0Q472.75 35 421.75 8.5Q370.75 -18 309.5 -18ZM331.5 82.5Q376.5 82.5 413.375 102.75Q450.25 123 472.5 161.375Q494.75 199.75 494.75 252V295Q494.75 346.25 472.0 381.875Q449.25 417.5 412.0 436.5Q374.75 455.5 330.75 455.5Q282 455.5 244.5 432.125Q207 408.75 186.0 366.875Q165 325 165 268.5Q165 212 186.375 170.0Q207.75 128 245.625 105.25Q283.5 82.5 331.5 82.5Z" fill="#7C8DA6" transform="translate(177.696,0.000) scale(0.01800,-0.01800)"/>
<path d="M111.5 0V538.5H229V0ZM32.5 448.5V538.5H229V448.5ZM150.375 614Q114 614 96.5 633.125Q79 652.25 79 681.75Q79 711.25 96.5297619047619 730.375Q114.05952380952381 749.5 150.25 749.5Q186.75 749.5 204.125 730.375Q221.5 711.25 221.5 681.75Q221.5 652.25 204.125 633.125Q186.75 614 150.375 614Z" fill="#7C8DA6" transform="translate(190.368,0.000) scale(0.01800,-0.01800)"/>
<path d="M411.25 0V160.5H391.75V342.5Q391.75 393.25 366.0 418.875Q340.25 444.5 289 444.5Q261 444.5 227.0 443.5Q193 442.5 160.25 441.25Q127.5 440 102.5 438V539Q125 541 151.625 542.625Q178.25 544.25 206.625 544.875Q235 545.5 260.5 545.5Q343.25 545.5 397.125 524.625Q451 503.75 477.625 458.25Q504.25 412.75 504.25 337.25V0ZM236.25 -14Q176.75 -14 132.875 6.625Q89 27.25 65.0 66.375Q41 105.5 41 160.5Q41 218.75 68.375 256.875Q95.75 295 147.0 314.125Q198.25 333.25 268.75 333.25H404.25V255.75H265.75Q213 255.75 184.75 230.125Q156.5 204.5 156.5 163.75Q156.5 123.25 184.75 98.375Q213 73.5 265.75 73.5Q297.25 73.5 325.125 85.0Q353 96.5 371.375 123.875Q389.75 151.25 391.75 199.5L421.75 161Q416.75 104 394.25 65.25Q371.75 26.5 332.25 6.25Q292.75 -14 236.25 -14Z" fill="#7C8DA6" transform="translate(196.254,0.000) scale(0.01800,-0.01800)"/>
<path d="M85.5 0V538.5H178.5V307.5H167.5Q167.5 388.25 189.125 443.25Q210.75 498.25 254.625 526.625Q298.5 555 364.25 555H369.25Q468.5 555 517.75 492.125Q567 429.25 567 307.75V0H449.5V324Q449.5 380 417.625 414.25Q385.75 448.5 330.25 448.5Q273.25 448.5 238.125 413.125Q203 377.75 203 319V0Z" fill="#7C8DA6" transform="translate(206.892,0.000) scale(0.01800,-0.01800)"/>
<path d="M411.25 0V160.5H391.75V342.5Q391.75 393.25 366.0 418.875Q340.25 444.5 289 444.5Q261 444.5 227.0 443.5Q193 442.5 160.25 441.25Q127.5 440 102.5 438V539Q125 541 151.625 542.625Q178.25 544.25 206.625 544.875Q235 545.5 260.5 545.5Q343.25 545.5 397.125 524.625Q451 503.75 477.625 458.25Q504.25 412.75 504.25 337.25V0ZM236.25 -14Q176.75 -14 132.875 6.625Q89 27.25 65.0 66.375Q41 105.5 41 160.5Q41 218.75 68.375 256.875Q95.75 295 147.0 314.125Q198.25 333.25 268.75 333.25H404.25V255.75H265.75Q213 255.75 184.75 230.125Q156.5 204.5 156.5 163.75Q156.5 123.25 184.75 98.375Q213 73.5 265.75 73.5Q297.25 73.5 325.125 85.0Q353 96.5 371.375 123.875Q389.75 151.25 391.75 199.5L421.75 161Q416.75 104 394.25 65.25Q371.75 26.5 332.25 6.25Q292.75 -14 236.25 -14Z" fill="#7C8DA6" transform="translate(218.664,0.000) scale(0.01800,-0.01800)"/>
<path d="M18 231.75V327.25H886.5V231.75Z" fill="#7C8DA6" transform="translate(237.654,0.000) scale(0.01800,-0.01800)"/>
<path d="M98 0V730H218V0ZM198 0V106.5H522.5V0Z" fill="#7C8DA6" transform="translate(262.476,0.000) scale(0.01800,-0.01800)"/>
<path d="M338.75 -18.5Q268 -18.5 214.0 5.0Q160 28.5 122.75 67.875Q85.5 107.25 66.5 156.75Q47.5 206.25 47.5 259V278.5Q47.5 331.75 67.125 381.875Q86.75 432 124.5 471.375Q162.25 510.75 216.25 533.875Q270.25 557 338.75 557Q407.5 557 461.375 533.875Q515.25 510.75 553.0 471.375Q590.75 432 610.375 381.875Q630 331.75 630 278.5V259Q630 206.25 611.0 156.75Q592 107.25 554.75 67.875Q517.5 28.5 463.5 5.0Q409.5 -18.5 338.75 -18.5ZM338.75 84Q394.25 84 433.0 108.375Q471.75 132.75 492.125 174.625Q512.5 216.5 512.5 268.75Q512.5 322.25 491.625 364.125Q470.75 406 431.875 430.25Q393 454.5 338.75 454.5Q285.25 454.5 246.0 430.25Q206.75 406 185.875 364.125Q165 322.25 165 268.75Q165 216.5 185.375 174.625Q205.75 132.75 244.625 108.375Q283.5 84 338.75 84Z" fill="#7C8DA6" transform="translate(272.538,0.000) scale(0.01800,-0.01800)"/>
<path d="M98 0V734.5H218V0ZM546.25 0 313.5 321.25H450.25L689 0ZM178.5 254V355H369.25Q412 355 442.75 372.5Q473.5 390 490.375 421.125Q507.25 452.25 507.25 492.5Q507.25 533 490.375 564.125Q473.5 595.25 442.75 613.125Q412 631 369.25 631H178.5V734.5H353Q436.75 734.5 499.0 709.375Q561.25 684.25 595.25 632.875Q629.25 581.5 629.25 501.75V485.75Q629.25 406 594.75 354.875Q560.25 303.75 498.5 278.875Q436.75 254 353 254Z" fill="#7C8DA6" transform="translate(284.922,0.000) scale(0.01800,-0.01800)"/>
<path d="M411.25 0V160.5H391.75V342.5Q391.75 393.25 366.0 418.875Q340.25 444.5 289 444.5Q261 444.5 227.0 443.5Q193 442.5 160.25 441.25Q127.5 440 102.5 438V539Q125 541 151.625 542.625Q178.25 544.25 206.625 544.875Q235 545.5 260.5 545.5Q343.25 545.5 397.125 524.625Q451 503.75 477.625 458.25Q504.25 412.75 504.25 337.25V0ZM236.25 -14Q176.75 -14 132.875 6.625Q89 27.25 65.0 66.375Q41 105.5 41 160.5Q41 218.75 68.375 256.875Q95.75 295 147.0 314.125Q198.25 333.25 268.75 333.25H404.25V255.75H265.75Q213 255.75 184.75 230.125Q156.5 204.5 156.5 163.75Q156.5 123.25 184.75 98.375Q213 73.5 265.75 73.5Q297.25 73.5 325.125 85.0Q353 96.5 371.375 123.875Q389.75 151.25 391.75 199.5L421.75 161Q416.75 104 394.25 65.25Q371.75 26.5 332.25 6.25Q292.75 -14 236.25 -14Z" fill="#7C8DA6" transform="translate(297.882,0.000) scale(0.01800,-0.01800)"/>
<path d="M98 0V730H260L459.5 268.5H476.5L675 730H839V0H719.5V623L732 621L529.75 150H397.5L194.25 621L208 623V0Z" fill="#7C8DA6" transform="translate(312.696,0.000) scale(0.01800,-0.01800)"/>
<path d="M320.5 -18.5Q250.5 -18.5 198.75 5.5Q147 29.5 113.75 69.375Q80.5 109.25 64.0 158.75Q47.5 208.25 47.5 260V278.5Q47.5 331.5 64.0 381.125Q80.5 430.75 113.625 470.375Q146.75 510 197.125 533.5Q247.5 557 314.5 557Q402 557 459.875 518.875Q517.75 480.75 546.625 420.125Q575.5 359.5 575.5 290V243.25H98V321.75H496.75L464.5 281.5Q464.5 336 447.875 375.25Q431.25 414.5 398.125 436.0Q365 457.5 314.5 457.5Q262.75 457.5 228.0 433.875Q193.25 410.25 175.875 368.125Q158.5 326 158.5 269Q158.5 214.75 175.625 172.25Q192.75 129.75 228.75 105.375Q264.75 81 320.5 81Q377.25 81 413.0 105.25Q448.75 129.5 457.25 162.75H566.25Q555 107.5 521.375 66.5Q487.75 25.5 436.625 3.5Q385.5 -18.5 320.5 -18.5Z" fill="#7C8DA6" transform="translate(329.742,0.000) scale(0.01800,-0.01800)"/>
<path d="M271.5 -16.5Q162.75 -16.5 102.375 29.625Q42 75.75 39.25 156.75H146.75Q149.25 127.25 178.125 102.125Q207 77 272.5 77Q329.25 77 361.125 98.75Q393 120.5 393 154.25Q393 184.25 369.25 201.5Q345.5 218.75 290.25 224.5L237.25 230Q153.75 238.75 105.25 278.625Q56.75 318.5 56.75 387.25Q56.75 440.75 83.75 478.0Q110.75 515.25 158.5 534.875Q206.25 554.5 268.25 554.5Q363.5 554.5 422.5 512.375Q481.5 470.25 484 388.25H376.5Q374.75 418.5 347.625 439.75Q320.5 461 267.75 461Q218 461 191.375 441.0Q164.75 421 164.75 389.75Q164.75 362 184.75 346.0Q204.75 330 250.25 325L303.25 319.5Q394.25 310 447.625 269.25Q501 228.5 501 156.75Q501 105 472.0 65.875Q443 26.75 391.375 5.125Q339.75 -16.5 271.5 -16.5Z" fill="#7C8DA6" transform="translate(341.010,0.000) scale(0.01800,-0.01800)"/>
<path d="M85.5 0V730H203V299H179Q179 379.25 199.625 436.625Q220.25 494 262.625 524.5Q305 555 370.25 555H375.25Q469.75 555 518.375 491.125Q567 427.25 567 307.25V0H449.5V324Q449.5 382.25 416.375 415.375Q383.25 448.5 330.25 448.5Q272.75 448.5 237.875 410.5Q203 372.5 203 310.75V0Z" fill="#7C8DA6" transform="translate(350.964,0.000) scale(0.01800,-0.01800)"/>
<path d="M98 0V730H294.25L633.25 103H666L646 85V730H760V0H561.75L222.75 627H190L210 645V0Z" fill="#7C8DA6" transform="translate(366.912,0.000) scale(0.01800,-0.01800)"/>
<path d="M320.5 -18.5Q250.5 -18.5 198.75 5.5Q147 29.5 113.75 69.375Q80.5 109.25 64.0 158.75Q47.5 208.25 47.5 260V278.5Q47.5 331.5 64.0 381.125Q80.5 430.75 113.625 470.375Q146.75 510 197.125 533.5Q247.5 557 314.5 557Q402 557 459.875 518.875Q517.75 480.75 546.625 420.125Q575.5 359.5 575.5 290V243.25H98V321.75H496.75L464.5 281.5Q464.5 336 447.875 375.25Q431.25 414.5 398.125 436.0Q365 457.5 314.5 457.5Q262.75 457.5 228.0 433.875Q193.25 410.25 175.875 368.125Q158.5 326 158.5 269Q158.5 214.75 175.625 172.25Q192.75 129.75 228.75 105.375Q264.75 81 320.5 81Q377.25 81 413.0 105.25Q448.75 129.5 457.25 162.75H566.25Q555 107.5 521.375 66.5Q487.75 25.5 436.625 3.5Q385.5 -18.5 320.5 -18.5Z" fill="#7C8DA6" transform="translate(382.536,0.000) scale(0.01800,-0.01800)"/>
<path d="M307.25 -6.5Q239.75 -6.5 193.75 11.75Q147.75 30 124.125 73.875Q100.5 117.75 100.5 192.75L100.75 696H211.75L211.5 182.5Q211.5 141 234.0 118.5Q256.5 96 298 96H387.5V-6.5ZM11.5 451.5V538.5H387.5V451.5Z" fill="#7C8DA6" transform="translate(393.804,0.000) scale(0.01800,-0.01800)"/>
<path d="M256.5 0 362 520.5H507L629.5 0H533.5L410 518H455L346.75 0ZM211.25 0 211 95H321.75L322 0ZM172.5 0 23 538.5H136.5L280.25 0ZM560.75 0 561 95H671.75L671.5 0ZM605.5 0 731.75 538.5H838.5L707.25 0Z" fill="#7C8DA6" transform="translate(401.706,0.000) scale(0.01800,-0.01800)"/>
<path d="M338.75 -18.5Q268 -18.5 214.0 5.0Q160 28.5 122.75 67.875Q85.5 107.25 66.5 156.75Q47.5 206.25 47.5 259V278.5Q47.5 331.75 67.125 381.875Q86.75 432 124.5 471.375Q162.25 510.75 216.25 533.875Q270.25 557 338.75 557Q407.5 557 461.375 533.875Q515.25 510.75 553.0 471.375Q590.75 432 610.375 381.875Q630 331.75 630 278.5V259Q630 206.25 611.0 156.75Q592 107.25 554.75 67.875Q517.5 28.5 463.5 5.0Q409.5 -18.5 338.75 -18.5ZM338.75 84Q394.25 84 433.0 108.375Q471.75 132.75 492.125 174.625Q512.5 216.5 512.5 268.75Q512.5 322.25 491.625 364.125Q470.75 406 431.875 430.25Q393 454.5 338.75 454.5Q285.25 454.5 246.0 430.25Q206.75 406 185.875 364.125Q165 322.25 165 268.75Q165 216.5 185.375 174.625Q205.75 132.75 244.625 108.375Q283.5 84 338.75 84Z" fill="#7C8DA6" transform="translate(417.600,0.000) scale(0.01800,-0.01800)"/>
<path d="M85.5 0V538.5H178.5V313.5H175Q175 430.25 225.75 487.625Q276.5 545 376.5 545H395.5V441.5H359.5Q284.25 441.5 243.625 401.375Q203 361.25 203 285.75V0Z" fill="#7C8DA6" transform="translate(429.984,0.000) scale(0.01800,-0.01800)"/>
<path d="M459.5 0 268 251.25H183.5L421.25 538.5H544.5L326.75 276.5L332 336.75L593.5 0ZM85.5 0V730H203V0Z" fill="#7C8DA6" transform="translate(437.616,0.000) scale(0.01800,-0.01800)"/></g>
</svg>