<svg xmlns="http://www.w3.org/2000/svg" viewBox="0 0 356 356" width="356" height="356">
<defs>
  <linearGradient id="sig" x1="0" y1="1" x2="1" y2="0">
    <stop offset="0" stop-color="#2DD4BF"/><stop offset="0.55" stop-color="#34D399"/><stop offset="1" stop-color="#A3E635"/>
  </linearGradient>
  <linearGradient id="meshtext" x1="0" y1="0" x2="1" y2="0">
    <stop offset="0" stop-color="#2DD4BF"/><stop offset="1" stop-color="#A3E635"/>
  </linearGradient>
</defs>
<defs><linearGradient id="bg" x1="0" y1="0" x2="1" y2="1"><stop offset="0" stop-color="#0E1B30"/><stop offset="1" stop-color="#091020"/></linearGradient></defs>
<rect x="6" y="6" width="344" height="344" rx="56.96" fill="url(#bg)" stroke="url(#sig)" stroke-width="3" opacity="1"/>
<g transform="translate(28.0,58.00049039477122)"><path d="M219.36 28.57 L221.10 27.91 L220.85 29.10 L219.36 28.57 Z M216.12 26.79 L217.64 26.10 L216.16 27.51 L216.12 26.79 Z M216.63 25.32 L217.95 24.97 L217.01 25.87 L216.63 25.32 Z M216.65 23.85 L217.16 24.41 L216.37 24.39 L216.65 23.85 Z M249.00 122.19 L249.08 125.49 L247.06 126.34 L248.56 128.59 L248.69 132.05 L244.22 133.88 L243.63 133.23 L244.53 131.90 L243.41 129.59 L240.40 128.19 L234.82 137.41 L235.82 139.47 L236.15 144.51 L232.72 145.47 L231.55 150.67 L224.62 152.22 L220.54 146.89 L216.24 145.19 L214.75 138.62 L210.49 139.79 L206.70 143.86 L202.93 144.54 L200.32 142.36 L195.75 140.67 L192.57 141.58 L191.88 143.39 L190.99 143.49 L188.29 142.52 L185.25 138.40 L174.95 136.70 L172.19 128.93 L168.34 125.53 L162.71 126.34 L158.98 123.48 L156.70 125.10 L157.12 24.89 L197.77 23.47 L199.10 25.07 L201.59 24.68 L204.45 26.89 L208.83 28.35 L213.39 31.92 L215.17 31.32 L216.40 29.08 L217.86 30.90 L219.90 30.85 L220.02 32.41 L222.93 35.24 L227.01 37.06 L241.12 31.87 L245.16 33.11 L249.33 32.92 L262.91 22.41 L285.99 14.00 L286.00 65.79 L282.75 66.52 L281.52 67.96 L283.59 71.83 L282.99 75.73 L283.57 78.21 L280.39 84.58 L279.35 91.63 L277.29 93.88 L276.59 101.88 L275.14 105.17 L270.94 107.70 L265.06 114.15 L260.24 115.96 L257.83 113.35 L249.00 122.19 Z" fill="#2DD4BF" fill-opacity="0.16" stroke="#2DD4BF" stroke-width="2.2" stroke-linejoin="round" fill-rule="evenodd"/>
<path d="M156.73 22.41 L156.70 125.10 L154.38 126.96 L157.75 133.82 L156.90 136.98 L151.41 137.82 L146.10 141.25 L143.01 139.19 L138.24 139.65 L137.55 141.21 L138.57 147.30 L133.02 150.87 L130.74 156.43 L128.90 157.53 L126.36 157.16 L123.97 161.63 L124.05 164.53 L122.69 167.65 L115.85 167.43 L113.20 165.65 L113.07 162.83 L111.92 162.28 L107.63 165.91 L105.68 166.21 L105.44 169.09 L102.16 173.90 L99.24 171.95 L96.72 167.91 L90.16 171.48 L89.13 175.37 L87.82 176.28 L79.73 170.35 L77.62 170.13 L75.79 171.48 L73.34 168.80 L72.26 170.70 L73.48 172.94 L72.66 174.36 L70.75 174.19 L70.85 171.66 L66.20 172.64 L64.17 170.67 L62.88 172.38 L63.90 175.30 L62.79 176.50 L60.26 175.63 L58.95 171.89 L60.70 171.97 L59.84 166.07 L60.71 163.86 L63.78 161.59 L62.33 159.98 L62.55 158.59 L65.22 157.03 L68.62 152.27 L71.44 147.68 L71.02 146.77 L72.52 143.13 L75.54 140.89 L76.28 137.57 L74.53 134.47 L75.77 130.94 L71.36 123.92 L72.97 121.99 L73.01 117.05 L75.18 115.72 L75.41 24.41 L78.44 26.95 L82.79 27.84 L89.18 26.21 L96.43 22.41 L156.73 22.41 Z" fill="#38BDF8" fill-opacity="0.16" stroke="#38BDF8" stroke-width="2.2" stroke-linejoin="round" fill-rule="evenodd"/>
<path d="M14.83 225.96 L14.00 223.40 L16.64 223.25 L16.46 225.98 L14.83 225.96 Z M223.31 158.30 L222.34 162.53 L225.85 167.53 L227.48 168.45 L226.43 170.32 L231.56 176.53 L232.55 179.96 L237.97 184.90 L240.02 186.00 L242.43 185.74 L230.93 196.21 L224.48 198.96 L219.77 202.46 L219.76 204.80 L215.40 207.42 L215.57 209.48 L214.07 211.41 L209.23 212.17 L207.31 216.48 L195.57 219.47 L190.65 222.69 L107.14 220.01 L65.52 220.73 L65.62 219.56 L58.98 219.00 L60.13 224.32 L59.50 226.00 L18.50 225.93 L20.05 221.05 L21.22 220.77 L23.93 223.30 L25.79 220.07 L25.09 216.63 L27.12 216.15 L27.33 214.85 L25.65 213.78 L25.71 212.90 L28.01 208.71 L25.59 204.76 L28.44 200.14 L31.01 197.87 L32.78 197.70 L44.71 203.84 L47.31 203.69 L48.34 200.65 L45.59 195.56 L46.77 191.58 L48.81 190.10 L50.33 190.89 L52.63 189.04 L59.22 187.62 L57.09 184.33 L56.35 180.84 L60.26 175.63 L62.79 176.50 L63.90 175.30 L62.88 172.38 L63.96 170.77 L66.20 172.64 L70.85 171.66 L70.75 174.19 L71.75 174.60 L73.47 173.24 L72.26 170.70 L73.55 168.81 L75.79 171.48 L77.62 170.13 L79.73 170.35 L87.82 176.28 L89.13 175.37 L90.16 171.48 L93.59 170.31 L96.47 167.90 L99.24 171.95 L102.16 173.90 L105.44 169.09 L105.68 166.21 L107.63 165.91 L111.92 162.28 L113.07 162.83 L113.20 165.65 L115.85 167.43 L122.69 167.65 L124.05 164.53 L123.97 161.63 L126.36 157.16 L128.90 157.53 L130.74 156.43 L133.02 150.87 L138.57 147.30 L137.55 141.21 L138.24 139.65 L143.01 139.19 L146.10 141.25 L151.41 137.82 L156.90 136.98 L157.75 133.82 L154.38 126.96 L158.67 123.51 L162.71 126.34 L168.34 125.53 L172.19 128.93 L174.95 136.70 L185.25 138.40 L188.29 142.52 L190.99 143.49 L191.88 143.39 L192.57 141.58 L195.75 140.67 L200.32 142.36 L202.93 144.54 L206.70 143.86 L210.49 139.79 L214.75 138.62 L216.24 145.19 L220.54 146.89 L223.63 151.55 L224.20 157.66 L223.31 158.30 Z" fill="#A3E635" fill-opacity="0.16" stroke="#A3E635" stroke-width="2.2" stroke-linejoin="round" fill-rule="evenodd"/>
<g transform="translate(203.2,85.2)" opacity="0.9"><path d="M432.25 -19.5Q332.75 -19.5 259.5 15.125Q186.25 49.75 138.0 106.375Q89.75 163 66.125 228.75Q42.5 294.5 42.5 356V378Q42.5 446 67.0 512.375Q91.5 578.75 140.75 632.875Q190 687 262.75 719.25Q335.5 751.5 432.25 751.5Q528.25 751.5 601.0 719.25Q673.75 687 723.0 632.875Q772.25 578.75 797.125 512.375Q822 446 822 378V356Q822 294.5 798.0 228.75Q774 163 725.75 106.375Q677.5 49.75 604.25 15.125Q531 -19.5 432.25 -19.5ZM432.25 133.5Q484.25 133.5 525.625 151.5Q567 169.5 596.25 201.625Q625.5 233.75 640.75 275.75Q656 317.75 656 366Q656 417.25 640.375 459.75Q624.75 502.25 595.5 533.375Q566.25 564.5 524.875 581.5Q483.5 598.5 432.25 598.5Q380.25 598.5 338.875 581.5Q297.5 564.5 268.25 533.375Q239 502.25 223.75 459.75Q208.5 417.25 208.5 366Q208.5 317.75 223.75 275.75Q239 233.75 268.25 201.625Q297.5 169.5 338.875 151.5Q380.25 133.5 432.25 133.5Z" fill="#CBD5E1" transform="translate(0.000,0.000) scale(0.01700,-0.01700)"/>
<path d="M553.5 0V730H717.5V0ZM82 0V730H246V0ZM217 295V438.5H582.5V295Z" fill="#CBD5E1" transform="translate(15.028,0.000) scale(0.01700,-0.01700)"/></g>
<g transform="translate(102.2,100.1)" opacity="0.9"><path d="M84 0V730H248V0Z" fill="#CBD5E1" transform="translate(0.000,0.000) scale(0.01700,-0.01700)"/>
<path d="M82 0V730H350.75L625.75 133H660L640 115V730H794V0H523.25L248.25 597H214L234 615V0Z" fill="#CBD5E1" transform="translate(5.984,0.000) scale(0.01700,-0.01700)"/></g>
<g transform="translate(130.2,192.2)" opacity="0.9"><path d="M561.5 0 309.5 341H208.5L514.5 730H703L428 381L425.75 451.5L760 0ZM82 0V730H246V0Z" fill="#CBD5E1" transform="translate(0.000,0.000) scale(0.01700,-0.01700)"/>
<path d="M220.25 276.5 7 730H175L328.25 390.75L299.25 400.25H382.75L351.75 390.75L490 730H649L452.75 276.5ZM256.25 0V299.5H416.75V0Z" fill="#CBD5E1" transform="translate(13.124,0.000) scale(0.01700,-0.01700)"/></g>
<line x1="166.0" y1="125.3" x2="187.4" y2="93.2" stroke="url(#sig)" stroke-width="2.4" stroke-linecap="round" opacity="0.95"/>
<line x1="166.0" y1="125.3" x2="134.8" y2="117.6" stroke="url(#sig)" stroke-width="2.4" stroke-linecap="round" opacity="0.95"/>
<line x1="166.0" y1="125.3" x2="167.8" y2="150.5" stroke="url(#sig)" stroke-width="2.4" stroke-linecap="round" opacity="0.95"/>
<line x1="187.4" y1="93.2" x2="199.4" y2="115.6" stroke="url(#sig)" stroke-width="2.4" stroke-linecap="round" opacity="0.95"/>
<line x1="199.4" y1="115.6" x2="166.0" y2="125.3" stroke="url(#sig)" stroke-width="2.4" stroke-linecap="round" opacity="0.95"/>
<line x1="167.8" y1="150.5" x2="182.9" y2="140.8" stroke="url(#sig)" stroke-width="2.4" stroke-linecap="round" opacity="0.95"/>
<line x1="182.9" y1="140.8" x2="166.0" y2="125.3" stroke="url(#sig)" stroke-width="2.4" stroke-linecap="round" opacity="0.95"/>
<line x1="134.8" y1="117.6" x2="167.8" y2="150.5" stroke="url(#sig)" stroke-width="2.4" stroke-linecap="round" opacity="0.95"/>
<line x1="187.4" y1="93.2" x2="134.8" y2="117.6" stroke="url(#sig)" stroke-width="2.4" stroke-linecap="round" opacity="0.95"/>
<path d="M177.50 119.21 A13.00 13.00 0 0 0 154.54 119.21" fill="none" stroke="#F9B233" stroke-width="2.6" stroke-linecap="round" opacity="0.90"/>
<path d="M182.80 116.39 A19.00 19.00 0 0 0 149.24 116.39" fill="none" stroke="#F9B233" stroke-width="2.2" stroke-linecap="round" opacity="0.64"/>
<path d="M188.09 113.57 A25.00 25.00 0 0 0 143.95 113.57" fill="none" stroke="#F9B233" stroke-width="1.8" stroke-linecap="round" opacity="0.38"/>
<circle cx="187.4" cy="93.2" r="5.6" fill="url(#sig)" stroke="#0A1322" stroke-width="2"/>
<circle cx="134.8" cy="117.6" r="5.6" fill="url(#sig)" stroke="#0A1322" stroke-width="2"/>
<circle cx="167.8" cy="150.5" r="5.6" fill="url(#sig)" stroke="#0A1322" stroke-width="2"/>
<circle cx="199.4" cy="115.6" r="5.6" fill="url(#sig)" stroke="#0A1322" stroke-width="2"/>
<circle cx="182.9" cy="140.8" r="5.6" fill="url(#sig)" stroke="#0A1322" stroke-width="2"/>
<circle cx="166.0" cy="125.3" r="7.2" fill="#F9B233" stroke="#0A1322" stroke-width="2"/></g>
</svg>