<svg xmlns="http://www.w3.org/2000/svg" viewBox="0 0 100 100">
<defs>
  <linearGradient id="sig" x1="2" y1="98" x2="98" y2="2" gradientUnits="userSpaceOnUse">
    <stop offset="0" stop-color="#2DD4BF"/>
    <stop offset="0.55" stop-color="#34D399"/>
    <stop offset="1" stop-color="#A3E635"/>
  </linearGradient>
  <linearGradient id="bg" x1="0" y1="0" x2="1" y2="1">
    <stop offset="0" stop-color="#0E1B30"/>
    <stop offset="1" stop-color="#091020"/>
  </linearGradient>
  <clipPath id="box">
    <rect x="2" y="2" width="96" height="96" rx="18"/>
  </clipPath>
</defs>
<rect x="2" y="2" width="96" height="96" rx="18" fill="url(#bg)" stroke="url(#sig)" stroke-width="2.5"/>
<g clip-path="url(#box)" stroke="url(#sig)" stroke-linecap="round">
  <line x1="22" y1="24" x2="78" y2="24" stroke-width="0.8" opacity="0.5"/>
  <line x1="22" y1="24" x2="50" y2="84" stroke-width="0.8" opacity="0.5"/>
  <line x1="78" y1="24" x2="50" y2="84" stroke-width="0.8" opacity="0.5"/>
  <line x1="22" y1="24" x2="50" y2="54" stroke-width="1.6" opacity="0.95"/>
  <line x1="78" y1="24" x2="50" y2="54" stroke-width="1.6" opacity="0.95"/>
  <line x1="50" y1="54" x2="50" y2="84" stroke-width="1.6" opacity="0.95"/>
</g>
<g clip-path="url(#box)" fill="none" stroke="#F9B233" stroke-linecap="round">
  <circle cx="50" cy="54" r="11" stroke-width="1.8" opacity="0.75"/>
  <circle cx="50" cy="54" r="19" stroke-width="1.4" opacity="0.45"/>
  <circle cx="50" cy="54" r="27" stroke-width="1.0" opacity="0.25"/>
</g>
<circle cx="22" cy="24" r="4.5" fill="url(#sig)" stroke="#091020" stroke-width="2"/>
<circle cx="78" cy="24" r="4.5" fill="url(#sig)" stroke="#091020" stroke-width="2"/>
<circle cx="50" cy="84" r="4.5" fill="url(#sig)" stroke="#091020" stroke-width="2"/>
<circle cx="50" cy="54" r="6.5" fill="#F9B233" stroke="#091020" stroke-width="2"/>
</svg>
